{"title":"Manamantha Telugu 2016 DVDSCR x264-Hindify.mp4","uid":15550572,"size":643275074,"categoryP":"video","categoryS":"movies","magnet":"?xt=urn:btih:3821b168ecea5c8254658297baa56a411f951278&amp;dn=Manamantha+Telugu+2016+DVDSCR+x264-Hindify.mp4&amp;tr=udp%3A%2F%2Ftracker.leechers-paradise.org%3A6969&amp;tr=udp%3A%2F%2Fzer0day.ch%3A1337&amp;tr=udp%3A%2F%2Fopen.demonii.com%3A1337&amp;tr=udp%3A%2F%2Ftracker.coppersurfer.tk%3A6969&amp;tr=udp%3A%2F%2Fexodus.desync.com%3A6969","seeders":55,"leechers":5,"uploader":null,"files":1,"time":1471019631,"description":"http://www.hindify.co/ presents:\r\n\r\nManamantha Telugu 2016 DVDSCR x264-Hindify.mp4\r\n\r\nScreenShots:\r\n \nhttp://extraimago.com/images/2016/08/12/vlcsnap-2016-08-12-11h29m00s174.png \nhttp://extraimago.com/images/2016/08/12/vlcsnap-2016-08-12-11h29m03s536.png \nhttp://extraimago.com/images/2016/08/12/vlcsnap-2016-08-12-11h29m07s214.png \nhttp://extraimago.com/images/2016/08/12/vlcsnap-2016-08-12-11h29m10s352.png \nhttp://extraimago.com/images/2016/08/12/vlcsnap-2016-08-12-11h29m15s249.png\r\n\r\nINFO:\r\n\r\nFormat : MPEG-4\r\nFormat profile : Base Media\r\nCodec ID : isom (isom/iso2/avc1/mp41)\r\nFile size : 613 MiB\r\nDuration : 2 h 13 min\r\nOverall bit rate : 640 kb/s\r\nWriting application : Lavf57.46.100\r\n\r\nVideo\r\nID : 1\r\nFormat : AVC\r\nFormat/Info : Advanced Video Codec\r\nFormat profile :   \r\nFormat settings, CABAC : Yes\r\nFormat settings, ReFrames : 4 frames\r\nCodec ID : avc1\r\nCodec ID/Info : Advanced Video Coding\r\nDuration : 2 h 13 min\r\nBit rate : 505 kb/s\r\nWidth : 672 pixels\r\nHeight : 288 pixels\r\nDisplay aspect ratio : 2.35:1\r\nFrame rate mode : Constant\r\nFrame rate : 25.000 FPS\r\nColor space : YUV\r\nChroma subsampling : 4:2:0\r\nBit depth : 8 bits\r\nScan type : Progressive\r\nBits/(Pixel*Frame) : 0.104\r\nStream size : 484 MiB (79%)\r\nWriting library : x264 core 148 r2705 3f5ed56\r\nEncoding settings : cabac=1 / ref=3 / deblock=1:0:0 / analyse=0x3:0x113 / me=hex / subme=7 / psy=1 / psy_rd=1.00:0.00 / mixed_ref=1 / me_range=16 / chroma_me=1 / trellis=1 / 8x8dct=1 / cqm=0 / deadzone=21,11 / fast_pskip=1 / chroma_qp_offset=-2 / threads=9 / lookahead_threads=1 / sliced_threads=0 / nr=0 / decimate=1 / interlaced=0 / bluray_compat=0 / constrained_intra=0 / bframes=3 / b_pyramid=2 / b_adapt=1 / b_bias=0 / direct=1 / weightb=1 / open_gop=0 / weightp=2 / keyint=250 / keyint_min=25 / scenecut=40 / intra_refresh=0 / rc_lookahead=40 / rc=crf / mbtree=1 / crf=23.0 / qcomp=0.60 / qpmin=0 / qpmax=69 / qpstep=4 / ip_ratio=1.40 / aq=1:1.00\r\n\r\nAudio\r\nID : 2\r\nFormat : AAC\r\nFormat/Info : Advanced Audio Codec\r\nFormat profile : LC\r\nCodec ID : 40\r\nDuration : 2 h 13 min\r\nBit rate mode : Constant\r\nBit rate : 128 kb/s\r\nChannel(s) : 2 channels\r\nChannel positions : Front: L R\r\nSampling rate : 48.0 kHz\r\nFrame rate : 46.875 FPS (1024 spf)\r\nCompression mode : Lossy\r\nStream size : 123 MiB (20%)\r\nDefault : Yes\r\nAlternate group : 1","torrent":{"xt":"urn:btih:3821b168ecea5c8254658297baa56a411f951278","amp;dn":"Manamantha+Telugu+2016+DVDSCR+x264-Hindify.mp4","amp;tr":["udp%3A%2F%2Ftracker.leechers-paradise.org%3A6969","udp%3A%2F%2Fzer0day.ch%3A1337","udp%3A%2F%2Fopen.demonii.com%3A1337","udp%3A%2F%2Ftracker.coppersurfer.tk%3A6969","udp%3A%2F%2Fexodus.desync.com%3A6969"],"infoHash":"3821b168ecea5c8254658297baa56a411f951278","infoHashBuffer":{"type":"Buffer","data":[56,33,177,104,236,234,92,130,84,101,130,151,186,165,106,65,31,149,18,120]},"announce":[],"urlList":[]}}